<svg width="16" height="16" viewBox="0 0 16 16" fill="none" xmlns="http://www.w3.org/2000/svg">
<path d="M8.00016 8.66665C8.36835 8.66665 8.66683 8.36817 8.66683 7.99998C8.66683 7.63179 8.36835 7.33331 8.00016 7.33331C7.63197 7.33331 7.3335 7.63179 7.3335 7.99998C7.3335 8.36817 7.63197 8.66665 8.00016 8.66665Z" stroke="white" stroke-width="2" stroke-linecap="round" stroke-linejoin="round"/>
<path d="M8.00016 4.00002C8.36835 4.00002 8.66683 3.70154 8.66683 3.33335C8.66683 2.96516 8.36835 2.66669 8.00016 2.66669C7.63197 2.66669 7.3335 2.96516 7.3335 3.33335C7.3335 3.70154 7.63197 4.00002 8.00016 4.00002Z" stroke="white" stroke-width="2" stroke-linecap="round" stroke-linejoin="round"/>
<path d="M8.00016 13.3333C8.36835 13.3333 8.66683 13.0349 8.66683 12.6667C8.66683 12.2985 8.36835 12 8.00016 12C7.63197 12 7.3335 12.2985 7.3335 12.6667C7.3335 13.0349 7.63197 13.3333 8.00016 13.3333Z" stroke="white" stroke-width="2" stroke-linecap="round" stroke-linejoin="round"/>
</svg>
