<svg width="20" height="20" viewBox="0 0 20 20" fill="none" xmlns="http://www.w3.org/2000/svg">
<path fill-rule="evenodd" clip-rule="evenodd" d="M14.8767 4.81553C15.2042 4.6224 15.6208 4.67533 15.8895 4.94419C16.8855 5.94063 17.6125 7.1733 18.0028 8.527C18.393 9.8807 18.4337 11.3112 18.121 12.6849C18.0366 13.0556 17.7121 13.3222 17.3321 13.333C16.9522 13.3438 16.613 13.0961 16.5077 12.7308L14.4994 5.76413C14.3941 5.39887 14.5493 5.00865 14.8767 4.81553ZM5.28078 4.94379C5.60636 5.26909 5.60659 5.79672 5.28129 6.1223C4.65152 6.75263 4.15449 7.5028 3.81958 8.32848C3.48467 9.15417 3.31868 10.0386 3.33141 10.9295C3.34414 11.8205 3.53534 12.6998 3.89371 13.5156C4.25207 14.3314 4.77033 15.067 5.41786 15.6791C6.06539 16.2912 6.82904 16.7672 7.66369 17.0791C8.49833 17.3911 9.38704 17.5325 10.2773 17.4951C11.1675 17.4577 12.0412 17.2422 12.8468 16.8614C13.6523 16.4805 14.3733 15.9421 14.9672 15.2779C15.274 14.9348 15.8008 14.9053 16.1439 15.2121C16.487 15.5188 16.5164 16.0457 16.2097 16.3888C15.4673 17.219 14.566 17.8921 13.5591 18.3681C12.5522 18.8442 11.46 19.1135 10.3472 19.1603C9.23445 19.207 8.12357 19.0302 7.08026 18.6404C6.03695 18.2505 5.08239 17.6554 4.27298 16.8903C3.46357 16.1252 2.81574 15.2056 2.36778 14.1859C1.91983 13.1662 1.68083 12.067 1.66491 10.9534C1.649 9.8397 1.85649 8.73414 2.27513 7.70203C2.69376 6.66993 3.31505 5.73221 4.10227 4.94431C4.42756 4.61873 4.9552 4.6185 5.28078 4.94379Z" fill="white"/>
<path fill-rule="evenodd" clip-rule="evenodd" d="M9.99984 0.833252C10.4601 0.833252 10.8332 1.20635 10.8332 1.66659V4.99992C10.8332 5.46016 10.4601 5.83325 9.99984 5.83325C9.5396 5.83325 9.1665 5.46016 9.1665 4.99992V1.66659C9.1665 1.20635 9.5396 0.833252 9.99984 0.833252Z" fill="white"/>
<path fill-rule="evenodd" clip-rule="evenodd" d="M1.07757 1.07733C1.40301 0.751893 1.93065 0.751893 2.25609 1.07733L18.9228 17.744C19.2482 18.0694 19.2482 18.5971 18.9228 18.9225C18.5973 19.2479 18.0697 19.2479 17.7442 18.9225L1.07757 2.25584C0.752137 1.9304 0.752137 1.40277 1.07757 1.07733Z" fill="white"/>
</svg>
