<svg width="20" height="20" viewBox="0 0 20 20" fill="none" xmlns="http://www.w3.org/2000/svg">
<path fill-rule="evenodd" clip-rule="evenodd" d="M5.28093 4.94393C5.60642 5.26932 5.6065 5.79695 5.28112 6.12244C4.34899 7.05488 3.71427 8.24277 3.45721 9.53592C3.20015 10.8291 3.3323 12.1694 3.83695 13.3874C4.34159 14.6055 5.19608 15.6466 6.29236 16.379C7.38864 17.1114 8.67748 17.5024 9.99593 17.5024C11.3144 17.5024 12.6032 17.1114 13.6995 16.379C14.7958 15.6466 15.6503 14.6055 16.1549 13.3874C16.6596 12.1694 16.7917 10.8291 16.5347 9.53592C16.2776 8.24277 15.6429 7.05488 14.7108 6.12244C14.3854 5.79695 14.3855 5.26932 14.7109 4.94393C15.0364 4.61855 15.5641 4.61864 15.8895 4.94413C17.0546 6.10967 17.848 7.59453 18.1693 9.21097C18.4907 10.8274 18.3255 12.5028 17.6947 14.0254C17.0639 15.5479 15.9958 16.8493 14.6254 17.7648C13.2551 18.6804 11.644 19.1691 9.99593 19.1691C8.34787 19.1691 6.73682 18.6804 5.36647 17.7648C3.99611 16.8493 2.92801 15.5479 2.2972 14.0254C1.66639 12.5028 1.5012 10.8274 1.82253 9.21097C2.14385 7.59453 2.93725 6.10967 4.10242 4.94413C4.4278 4.61864 4.95544 4.61855 5.28093 4.94393Z" fill="white"/>
<path fill-rule="evenodd" clip-rule="evenodd" d="M9.99984 0.833252C10.4601 0.833252 10.8332 1.20635 10.8332 1.66659V9.99992C10.8332 10.4602 10.4601 10.8333 9.99984 10.8333C9.5396 10.8333 9.1665 10.4602 9.1665 9.99992V1.66659C9.1665 1.20635 9.5396 0.833252 9.99984 0.833252Z" fill="white"/>
</svg>
