<svg width="32" height="32" viewBox="0 0 32 32" fill="none" xmlns="http://www.w3.org/2000/svg">
<path d="M17 9C17 8.44772 16.5523 8 16 8C15.4477 8 15 8.44772 15 9L17 9ZM15.2929 23.7071C15.6834 24.0976 16.3166 24.0976 16.7071 23.7071L23.0711 17.3431C23.4616 16.9526 23.4616 16.3195 23.0711 15.9289C22.6805 15.5384 22.0474 15.5384 21.6569 15.9289L16 21.5858L10.3431 15.9289C9.95262 15.5384 9.31946 15.5384 8.92893 15.9289C8.53841 16.3195 8.53841 16.9526 8.92893 17.3431L15.2929 23.7071ZM15 9L15 23L17 23L17 9L15 9Z" fill="white"/>
</svg>
