<svg width="20" height="20" viewBox="0 0 20 20" fill="none" xmlns="http://www.w3.org/2000/svg">
<path fill-rule="evenodd" clip-rule="evenodd" d="M10.0002 2.49992C5.85803 2.49992 2.50016 5.85778 2.50016 9.99992C2.50016 14.1421 5.85803 17.4999 10.0002 17.4999C14.1423 17.4999 17.5002 14.1421 17.5002 9.99992C17.5002 5.85778 14.1423 2.49992 10.0002 2.49992ZM0.833496 9.99992C0.833496 4.93731 4.93755 0.833252 10.0002 0.833252C15.0628 0.833252 19.1668 4.93731 19.1668 9.99992C19.1668 15.0625 15.0628 19.1666 10.0002 19.1666C4.93755 19.1666 0.833496 15.0625 0.833496 9.99992Z" fill="white"/>
<path fill-rule="evenodd" clip-rule="evenodd" d="M8.33333 6.66675C8.79357 6.66675 9.16667 7.03984 9.16667 7.50008V12.5001C9.16667 12.9603 8.79357 13.3334 8.33333 13.3334C7.8731 13.3334 7.5 12.9603 7.5 12.5001V7.50008C7.5 7.03984 7.8731 6.66675 8.33333 6.66675Z" fill="white"/>
<path fill-rule="evenodd" clip-rule="evenodd" d="M11.6668 6.66675C12.1271 6.66675 12.5002 7.03984 12.5002 7.50008V12.5001C12.5002 12.9603 12.1271 13.3334 11.6668 13.3334C11.2066 13.3334 10.8335 12.9603 10.8335 12.5001V7.50008C10.8335 7.03984 11.2066 6.66675 11.6668 6.66675Z" fill="white"/>
</svg>
